<?xml version="1.0" standalone="no"?>
<!DOCTYPE svg PUBLIC "-//W3C//DTD SVG 20010904//EN"
 "http://www.w3.org/TR/2001/REC-SVG-20010904/DTD/svg10.dtd">
<svg version="1.0" xmlns="http://www.w3.org/2000/svg"
 width="521.000000pt" height="532.000000pt" viewBox="0 0 521.000000 532.000000"
 preserveAspectRatio="xMidYMid meet">

<g transform="translate(0.000000,532.000000) scale(0.100000,-0.100000)"
fill="#000000" stroke="none">
<path d="M2348 5225 c-238 -29 -468 -95 -678 -196 -153 -74 -242 -128 -387
-236 -411 -307 -716 -789 -818 -1296 -51 -259 -52 -273 -25 -1357 5 -206 15
-607 21 -890 6 -283 15 -520 20 -526 11 -13 69 -6 70 10 0 6 4 2 9 -9 5 -12 9
-14 9 -6 1 11 5 10 17 -5 8 -10 13 -13 9 -6 -6 12 13 16 69 12 20 -1 26 2 21
11 -6 8 -4 10 4 5 7 -5 10 -13 8 -20 -3 -7 4 -13 14 -13 10 -1 19 3 19 9 0 7
4 7 14 -1 11 -9 13 -6 11 14 -2 14 1 23 6 19 5 -3 7 -10 4 -15 -4 -5 1 -9 9
-9 9 0 16 6 16 13 0 9 3 8 9 -2 5 -7 13 -11 19 -7 6 3 13 0 15 -6 4 -8 6 -7 6
4 1 17 24 19 38 3 4 -4 1 -5 -7 0 -12 7 -13 6 -2 -6 11 -12 14 -12 22 1 7 11
10 11 10 2 0 -9 5 -10 17 -3 13 7 22 4 34 -10 14 -17 18 -17 23 -4 3 8 16 15
28 15 19 0 20 -2 8 -10 -8 -5 -12 -10 -7 -11 24 -5 33 -3 45 8 16 16 42 17 42
2 0 -5 -4 -7 -10 -4 -5 3 -10 1 -10 -4 0 -15 11 -13 33 3 13 10 27 12 48 6 16
-5 29 -5 29 -1 0 4 17 7 37 8 21 0 49 1 63 2 34 3 55 -2 76 -19 11 -9 15 -10
10 -3 -11 20 3 34 23 24 9 -5 23 -6 30 -2 7 5 22 6 32 4 15 -4 17 -9 7 -27 -8
-16 -5 -15 15 7 14 15 30 27 35 27 13 0 22 -38 11 -44 -5 -2 -4 -3 3 -2 8 2
12 16 11 34 l-2 32 22 -20 c14 -14 24 -17 31 -10 15 15 29 12 23 -5 -4 -8 -2
-17 3 -20 6 -4 10 0 10 7 0 7 9 19 19 25 17 11 19 10 16 -8 -3 -15 0 -19 10
-16 7 3 16 0 19 -8 3 -9 -1 -12 -15 -10 -11 2 -17 0 -14 -5 7 -12 47 -4 57 12
6 10 8 10 8 0 0 -7 5 -10 10 -7 6 3 17 -1 26 -9 14 -14 48 -21 94 -18 8 0 22
-4 31 -8 22 -12 32 -1 17 19 -7 9 -8 13 -4 9 5 -4 16 -2 25 5 14 11 15 10 1
-7 -14 -18 -13 -19 2 -13 10 3 20 1 24 -5 4 -6 3 -8 -4 -4 -6 3 -13 2 -17 -4
-3 -5 1 -10 9 -10 8 0 18 5 21 10 4 6 11 7 17 4 7 -5 9 -1 5 9 -3 9 -1 19 5
23 6 4 8 3 5 -2 -7 -12 1 -23 27 -44 18 -14 19 -13 13 2 -3 10 -1 20 5 24 7 4
8 3 4 -4 -4 -7 -2 -12 4 -12 6 0 9 -4 6 -9 -5 -8 3 -8 34 -1 3 0 -4 8 -15 17
-18 14 -18 15 -2 9 10 -3 23 -6 28 -6 6 0 7 -4 4 -10 -10 -16 39 -7 52 10 10
12 11 11 6 -9 -5 -20 -3 -22 16 -16 14 4 21 2 21 -7 0 -11 2 -11 9 0 4 7 12
12 17 11 22 -4 35 2 28 13 -4 7 -3 8 5 4 6 -4 9 -12 6 -17 -4 -5 -2 -9 3 -9
17 0 22 13 9 29 -10 14 -10 14 3 5 8 -6 31 -10 50 -8 23 2 30 0 20 -6 -11 -7
-9 -9 8 -7 25 1 27 7 10 27 -11 12 -10 12 2 3 8 -6 19 -11 23 -11 5 0 12 -4
15 -8 4 -4 1 -4 -5 0 -8 4 -13 1 -13 -8 0 -9 5 -16 11 -16 8 0 7 -6 -2 -17
-12 -16 -12 -17 2 -6 9 7 18 11 21 8 2 -3 4 5 4 17 -1 13 5 23 12 24 6 1 13 2
15 4 9 7 38 6 43 -2 4 -6 10 -5 15 3 7 11 9 10 9 -3 0 -20 -11 -23 -27 -7 -7
7 -10 2 -10 -18 0 -15 2 -22 4 -15 3 6 16 12 30 12 19 0 24 4 19 16 -3 8 -2
13 3 9 5 -3 12 1 14 7 4 10 6 9 6 -1 1 -11 4 -11 17 -1 12 11 15 11 12 -1 -2
-8 2 -13 7 -12 7 1 12 -41 13 -111 2 -62 5 -121 7 -132 2 -10 4 -36 4 -57 1
-33 4 -38 20 -32 13 4 24 -1 35 -16 l15 -23 10 25 c8 21 10 21 11 4 0 -17 2
-18 10 -5 9 13 12 13 24 -2 7 -10 16 -15 19 -11 4 3 7 1 7 -6 0 -7 5 -9 10 -6
6 3 10 1 10 -5 0 -6 4 -8 10 -5 5 3 19 1 30 -5 15 -8 20 -8 20 1 0 7 7 8 18 4
9 -4 26 -9 37 -10 13 -1 19 -8 17 -21 -2 -16 -1 -17 8 -4 9 13 11 13 20 0 9
-13 10 -13 10 0 1 11 4 10 15 -4 15 -20 15 -20 29 0 13 16 17 17 28 5 11 -12
10 -13 -7 -7 -13 5 -17 4 -10 -3 6 -5 21 -11 35 -13 14 -2 24 -9 22 -16 -1 -8
2 -11 8 -7 6 3 8 11 4 16 -7 12 33 -9 53 -27 6 -7 9 -15 5 -19 -4 -4 5 0 21
10 17 11 27 13 27 6 0 -9 5 -9 20 -1 14 7 20 7 20 0 0 -5 7 -10 15 -10 8 0 15
-4 15 -10 0 -5 7 -7 15 -4 8 4 15 1 15 -4 0 -6 9 -9 20 -7 11 2 20 0 20 -6 0
-5 8 -9 18 -9 14 0 15 2 2 10 -9 6 -10 10 -3 10 6 0 15 -5 19 -11 4 -8 9 -7
15 2 7 11 11 8 15 -9 5 -18 9 -20 15 -10 7 10 9 10 9 -2 0 -13 1 -13 10 0 7
11 10 12 10 2 0 -9 7 -11 21 -7 13 4 19 3 16 -3 -9 -13 67 -42 84 -31 8 4 19
1 28 -9 21 -23 40 -25 47 -7 5 13 9 12 25 -6 11 -12 19 -19 19 -15 0 4 9 2 19
-4 14 -7 22 -7 26 1 5 6 11 4 19 -7 9 -11 21 -15 35 -11 11 3 19 1 16 -4 -3
-4 200 -9 463 -9 l469 0 7 237 c15 548 54 2180 62 2598 5 229 3 364 -5 440
-71 653 -422 1236 -960 1596 -136 91 -372 207 -528 258 -296 98 -638 133 -945
96z m492 -566 c41 -6 120 -21 174 -35 312 -78 512 -187 717 -393 129 -129 195
-221 270 -374 101 -206 139 -381 139 -636 -1 -286 -28 -868 -46 -971 -29 -167
-110 -390 -164 -448 -11 -12 -17 -22 -13 -22 4 0 3 -4 -2 -8 -6 -4 -22 -23
-37 -43 -31 -42 -198 -214 -198 -205 0 4 -11 -3 -24 -16 -41 -40 -64 -57 -70
-51 -3 4 -6 -1 -6 -9 0 -9 -13 -21 -30 -28 -16 -7 -27 -16 -24 -21 3 -5 2 -9
-3 -8 -14 4 -63 -23 -57 -32 2 -4 -4 -6 -15 -4 -11 2 -22 -3 -25 -11 -3 -8
-12 -14 -21 -14 -8 0 -15 -5 -15 -12 0 -6 -3 -8 -7 -5 -3 4 -15 -1 -26 -10
-15 -13 -19 -14 -13 -3 4 8 0 6 -8 -4 -9 -11 -16 -16 -16 -10 0 5 -7 0 -15
-10 -10 -13 -15 -15 -15 -6 0 9 -5 8 -16 -6 -8 -10 -12 -12 -8 -4 4 8 -5 4
-21 -10 -16 -14 -24 -18 -20 -10 5 10 1 8 -13 -4 -12 -11 -22 -15 -22 -11 0 4
-8 1 -17 -7 -26 -22 -47 -33 -40 -20 4 5 -11 2 -32 -9 -22 -10 -47 -19 -56
-19 -8 0 -15 -4 -15 -10 0 -5 -3 -9 -7 -9 -5 1 -10 1 -13 -1 -3 -1 -16 -3 -29
-6 -14 -2 -31 -10 -40 -17 -12 -10 -13 -9 -6 3 6 11 3 10 -12 -3 -11 -9 -22
-14 -25 -11 -4 3 -16 0 -28 -6 -17 -9 -21 -9 -15 0 6 9 2 9 -14 1 -11 -7 -21
-9 -21 -5 0 3 -6 2 -12 -3 -7 -5 -30 -9 -50 -8 -21 0 -38 -3 -38 -7 0 -4 -7
-4 -17 -1 -12 5 -14 3 -8 -8 7 -11 5 -11 -10 1 -17 14 -18 13 -12 -5 6 -18 6
-18 -6 -3 -9 12 -18 14 -30 7 -9 -6 -17 -7 -17 -3 0 4 -10 -1 -22 -12 -22 -19
-22 -19 -8 0 14 18 14 19 -6 8 -11 -6 -26 -7 -32 -3 -15 9 -63 8 -79 -2 -6 -4
-14 -3 -18 3 -4 6 -11 8 -16 5 -17 -11 -50 -14 -44 -4 4 5 -1 9 -10 9 -10 0
-13 -5 -9 -12 6 -9 3 -9 -9 0 -9 8 -21 11 -27 7 -5 -3 -10 -1 -10 6 0 8 -4 8
-16 -1 -8 -8 -14 -9 -13 -4 4 21 -2 24 -22 13 -15 -7 -19 -8 -15 0 5 7 -3 10
-22 7 -16 -1 -37 3 -47 10 -15 11 -21 11 -34 1 -12 -9 -13 -9 -7 1 6 10 -1 15
-16 11 -2 0 -20 7 -40 16 -21 8 -38 13 -38 11 0 -3 -12 1 -27 9 -15 8 -30 12
-35 9 -4 -3 -8 0 -8 6 0 6 -4 8 -10 5 -5 -3 -10 -1 -10 5 0 6 -4 8 -10 5 -5
-3 -10 -1 -10 5 0 6 -8 10 -18 8 -9 -1 -32 8 -50 20 -17 13 -32 20 -32 16 0
-4 -10 1 -22 12 -12 10 -18 13 -13 5 5 -9 -2 -7 -18 5 -15 10 -27 24 -27 29 0
6 -5 3 -10 -5 -8 -13 -10 -13 -10 2 0 12 -14 21 -42 30 -50 15 -59 21 -151
108 -227 214 -383 503 -442 820 -19 103 -32 364 -41 800 -6 284 -5 338 10 430
88 524 460 950 971 1114 272 86 523 110 785 75z m-2330 -3925 c0 -8 -19 -13
-24 -6 -3 5 1 9 9 9 8 0 15 -2 15 -3z m1355 -44 c-3 -5 -1 -10 6 -10 7 0 10
-3 6 -6 -9 -9 -28 6 -22 17 4 5 8 9 11 9 3 0 2 -4 -1 -10z m325 -24 c0 -2 -8
-10 -17 -17 -16 -13 -17 -12 -4 4 13 16 21 21 21 13z"/>
<path d="M1611 3434 c-98 -35 -174 -106 -220 -203 -22 -48 -26 -69 -26 -151 0
-87 3 -101 32 -161 39 -79 102 -140 181 -177 49 -23 71 -27 152 -27 82 0 103
4 152 27 79 37 142 98 181 177 30 61 32 73 32 166 0 89 -3 106 -28 156 -33 68
-119 152 -184 181 -64 29 -209 35 -272 12z"/>
<path d="M3348 3436 c-238 -85 -330 -354 -192 -564 37 -56 93 -102 164 -135
35 -16 66 -21 140 -21 85 -1 102 2 158 28 132 61 214 190 214 336 0 213 -156
370 -367 369 -44 0 -96 -6 -117 -13z"/>
<path d="M2531 1592 c-46 -23 -59 -45 -40 -68 35 -43 138 -57 206 -29 68 29
72 67 11 95 -54 24 -132 25 -177 2z"/>
<path d="M1495 710 c-3 -5 -1 -10 4 -10 6 0 11 5 11 10 0 6 -2 10 -4 10 -3 0
-8 -4 -11 -10z"/>
<path d="M790 706 c0 -2 7 -7 16 -10 8 -3 12 -2 9 4 -6 10 -25 14 -25 6z"/>
<path d="M916 702 c-2 -4 4 -8 14 -8 10 0 16 4 14 8 -3 4 -9 8 -14 8 -5 0 -11
-4 -14 -8z"/>
<path d="M2446 645 c-6 -16 -9 -17 -16 -5 -6 8 -10 10 -10 4 0 -5 6 -18 13
-29 11 -14 16 -15 22 -5 5 9 4 11 -3 6 -7 -4 -12 -3 -12 3 0 5 5 11 12 13 6 2
9 10 6 18 -3 10 -6 9 -12 -5z"/>
<path d="M2279 627 c-9 -18 -9 -20 2 -9 16 15 43 16 33 0 -4 -7 -3 -8 4 -4 7
4 12 2 12 -5 0 -7 3 -10 6 -6 8 7 -17 41 -33 44 -7 2 -18 -7 -24 -20z"/>
<path d="M2540 637 c0 -9 5 -17 11 -17 5 0 7 -6 3 -12 -5 -8 -1 -8 12 2 10 8
20 15 22 16 1 1 -4 7 -13 14 -13 11 -15 10 -9 -6 5 -18 5 -18 -10 0 -14 17
-16 18 -16 3z"/>
<path d="M2353 605 c0 -8 4 -12 9 -9 5 3 6 10 3 15 -9 13 -12 11 -12 -6z"/>
<path d="M2516 607 c3 -10 9 -15 12 -12 3 3 0 11 -7 18 -10 9 -11 8 -5 -6z"/>
</g>
</svg>
